<svg width="44" height="44" viewBox="0 0 44 44" fill="none" xmlns="http://www.w3.org/2000/svg">
<g clip-path="url(#clip0_828_2246)">
<path d="M21.9912 44C34.1415 44 43.9912 34.1503 43.9912 22C43.9912 9.84974 34.1415 0 21.9912 0C9.84095 0 -0.00878906 9.84974 -0.00878906 22C-0.00878906 34.1503 9.84095 44 21.9912 44Z" fill="#F0F0F0"/>
<path d="M21.0342 22.0009H43.9907C43.9907 20.0152 43.726 18.0916 43.2328 16.2617H21.0342V22.0009Z" fill="#D80027"/>
<path d="M21.0342 10.5224H40.7616C39.4149 8.32477 37.693 6.38233 35.6853 4.7832H21.0342V10.5224Z" fill="#D80027"/>
<path d="M21.9915 44.0013C27.1692 44.0013 31.9281 42.2118 35.6862 39.2188H8.29688C12.0549 42.2118 16.8139 44.0013 21.9915 44.0013Z" fill="#D80027"/>
<path d="M3.22016 33.4794H40.7621C41.8433 31.7152 42.6818 29.7867 43.2333 27.7402H0.749023C1.30048 29.7867 2.13898 31.7152 3.22016 33.4794Z" fill="#D80027"/>
<path d="M10.182 3.43561H12.1869L10.322 4.79041L11.0344 6.98259L9.16959 5.62779L7.30484 6.98259L7.92015 5.08879C6.27823 6.45648 4.83912 8.05888 3.65318 9.84431H4.29556L3.10851 10.7067C2.92357 11.0152 2.7462 11.3286 2.57621 11.6467L3.14305 13.3913L2.08551 12.6229C1.82263 13.1799 1.58217 13.7494 1.36604 14.3308L1.99055 16.253H4.29556L2.43072 17.6078L3.14305 19.8L1.2783 18.4452L0.161281 19.2568C0.0494766 20.1555 -0.00878906 21.0709 -0.00878906 22H21.9912C21.9912 9.84981 21.9912 8.41741 21.9912 0C17.6452 0 13.5938 1.2607 10.182 3.43561ZM11.0344 19.8L9.16959 18.4452L7.30484 19.8L8.01717 17.6078L6.15233 16.253H8.45734L9.16959 14.0608L9.88184 16.253H12.1869L10.322 17.6078L11.0344 19.8ZM10.322 11.1991L11.0344 13.3913L9.16959 12.0365L7.30484 13.3913L8.01717 11.1991L6.15233 9.84431H8.45734L9.16959 7.65213L9.88184 9.84431H12.1869L10.322 11.1991ZM18.9256 19.8L17.0609 18.4452L15.1961 19.8L15.9085 17.6078L14.0436 16.253H16.3486L17.0609 14.0608L17.7731 16.253H20.0782L18.2133 17.6078L18.9256 19.8ZM18.2133 11.1991L18.9256 13.3913L17.0609 12.0365L15.1961 13.3913L15.9085 11.1991L14.0436 9.84431H16.3486L17.0609 7.65213L17.7731 9.84431H20.0782L18.2133 11.1991ZM18.2133 4.79041L18.9256 6.98259L17.0609 5.62779L15.1961 6.98259L15.9085 4.79041L14.0436 3.43561H16.3486L17.0609 1.24343L17.7731 3.43561H20.0782L18.2133 4.79041Z" fill="#0052B4"/>
</g>
<defs>
<clipPath id="clip0_828_2246">
<rect width="44" height="44" fill="white" transform="translate(-0.00878906)"/>
</clipPath>
</defs>
</svg>
